<?xml version="1.0" encoding="utf-8" ?><svg xmlns="http://www.w3.org/2000/svg" xmlns:xlink="http://www.w3.org/1999/xlink" viewBox="145 145 735 735"><path fill="#1a1a1a" d="M363.996 468.712C371.748 467.475 390.054 468.936 397.544 470.13C440.411 476.964 480.87 499.577 506.584 534.918C499.741 535.686 494.056 535.942 487.071 537.054C462.006 541.046 441.085 552.001 421.599 567.87C412.652 552.263 402.758 543.277 384.877 539.264C364.3 535.533 344.547 547.398 339.191 568.007C338.23 571.705 337.994 574.911 337.71 578.722C310.033 568.429 286.929 565.576 258.639 576.632C264.02 544.935 275.633 515.935 301.097 494.973C320.72 478.82 338.827 471.163 363.996 468.712Z"/><path fill="#1a1a1a" d="M645.022 468.717C649.65 468.146 655.13 468.719 659.744 468.886C699.954 470.351 734.592 497.254 752.312 532.396C759.409 546.472 762.527 561.324 765.391 576.656C738.865 565.186 713.424 568.92 687.141 578.276C685.407 557.737 675.763 545.288 655.908 539.114C633.832 534.992 612.09 548.993 602.221 568.332C584.313 551.239 560.73 541.347 536.493 536.684C530.79 535.587 524.019 535.432 518.123 535.007C539.876 502.834 578.363 480.449 615.844 472.167C625.54 470.025 635.136 469.247 645.022 468.717Z"/><path fill="#1a1a1a" d="M502.911 544.712C507.062 544.031 519.041 544.215 523.271 544.679C565.932 549.355 602.975 576.029 629.831 607.744C602.541 613.495 588.805 620.078 566.5 636.362C554.777 621.462 541.965 613.926 523.292 609.895C517.43 609.102 508.339 609.125 502.497 609.919C484.715 612.483 468.69 622.029 457.968 636.444C438.416 621.836 420.255 611.747 395.537 608.079C396.896 606.062 398.948 603.345 400.505 601.505C426.842 570.386 462.038 548.916 502.911 544.712Z"/><path fill="#1a1a1a" d="M506.908 398.214C511.188 398.038 515.474 398.119 519.744 398.456C568.01 401.996 596.862 425.782 626.588 460.201C601.486 465.36 574.547 472.292 554.143 488.753C544.974 474.749 534.221 467.81 517.619 465.678C510.993 465.328 506.122 465.246 499.592 466.888C487.463 469.963 477.053 477.73 470.65 488.481C449.911 473.876 423.352 463.021 397.879 460.93C400.648 457.019 404.718 452.206 407.939 448.614C435.044 418.386 465.405 400.555 506.908 398.214Z"/><path fill="#1a1a1a" d="M501.87 660.707C505.965 660.024 517.734 660.375 522.027 660.883C572.584 666.873 598.685 692.365 628.427 728.899C623.777 729.684 616.344 729.719 611.049 730.376C592.234 732.714 579.065 738.321 562.857 747.325C552.056 735.405 540.459 729.323 524.914 726.088C522.462 725.514 518.258 725.145 515.716 725.078C493.351 724.492 477.724 731.703 461.492 746.628C439.914 735.024 421.911 729.197 397.243 729.592C401.239 723.339 405.601 717.328 410.305 711.588C433.015 683.994 465.964 664.237 501.87 660.707Z"/><path fill="#1a1a1a" d="M349.27 615.2C355.977 614.301 365.124 614.925 371.789 615.512C407.386 618.647 442.078 634.462 469.752 656.772C446.06 665.593 434.511 673.48 415.669 690.236C397.842 675.979 378.912 667.74 357.45 679.564C343.867 687.634 341.241 700.753 339.36 715.137C312.407 713.092 299.076 716.656 276.786 730.805C275.505 723.897 274.306 718.139 273.254 711.093C266.228 664.052 300.962 619.87 349.27 615.2Z"/><path fill="#1a1a1a" d="M658.769 614.713C666.722 613.709 681.972 615.562 689.413 617.773C722.821 627.698 748.994 656.47 751.18 691.963C752.087 706.7 750.668 716.435 746.656 730.84L746.096 730.422C728.154 717.147 707.35 711.398 685.083 714.688C684.296 703.49 682.821 696.883 676.15 687.873C657.871 665.095 627.87 672.692 608.929 690.28C593.212 675.921 575.387 662.634 554.577 657.073C559.384 652.28 566.826 647.328 572.641 643.683C598.612 627.259 628.152 617.323 658.769 614.713Z"/><path fill="#1a1a1a" d="M504.767 782.2C511.746 781.044 528.432 782.859 535.498 784.837C572.991 795.336 591.505 820.92 609.866 852.058C585.97 858.307 572.981 862.512 551.34 874.794C546.165 856.986 537.676 847.065 519.715 841.765C495.391 838.525 480.296 852.591 473.735 874.887C453.781 863.671 436.847 857.512 414.833 852.142C420.1 841.935 426.366 832.275 433.537 823.303C453.369 798.672 473.322 785.623 504.767 782.2Z"/><path fill="#4a4a4a" d="M389.822 336.697C393.756 335.88 405.431 336.495 409.611 336.96C444.649 340.861 480.62 361.73 502.711 389.082C476.759 391.138 455.232 397.868 433.704 413.008C422.762 400.61 409.769 392.317 392.622 395.182C389.193 395.931 385.859 397.061 382.681 398.55C369.827 404.564 363.983 413.886 359.329 426.721C335.903 414.407 321.466 411.361 295.898 418.266C300.494 405.689 311.457 386.935 319.681 376.662C338.634 352.989 359.762 340.178 389.822 336.697Z"/><path fill="#4a4a4a" d="M621.364 336.216C672.947 332.817 710.402 374.356 728.998 418.108C728.344 417.925 727.689 417.748 727.033 417.575C702.899 411.227 686.781 414.561 665.427 427.025C662.673 414.806 654.238 405.244 643.7 398.956C623.151 389.283 604.973 397.374 590.237 412.696C568.936 398.619 547.296 389.443 521.292 389.497C521.808 388.864 522.332 388.239 522.865 387.621C547.898 358.605 582.827 338.95 621.364 336.216Z"/><path fill="#1a1a1a" d="M615.492 742.713C628.952 741.121 649.596 746.511 661.486 752.644C720.931 783.306 686.424 828.04 637.664 844.405C642.848 833.525 644.788 825.22 641.665 813.373C632.935 785.424 602.763 791.47 582.793 801.542C569.253 784.417 555.464 779.074 535.205 773.814C548.451 763.071 573.963 751.01 590.377 746.593C598.464 744.416 607.168 743.34 615.492 742.713Z"/><path fill="#1a1a1a" d="M398.63 742.715C401.87 742.255 409.638 742.514 412.989 742.829C440.882 745.452 465.721 758.314 488.611 773.541C465.652 781.466 459.022 783.03 441.006 801.774C422.549 791.108 399.949 786.818 385.365 806.046C377.238 819.285 381.602 832.52 386.738 845.746C374.1 837.934 360.9 833.346 349.366 823.138C303.625 782.657 355.307 745.797 398.63 742.715Z"/><path fill="#4a4a4a" d="M504.629 290.181C532.098 285.444 572.905 311.497 589.958 332.125C572.359 338.111 561.124 343.755 546.196 354.872C537.819 346.533 531.475 341.565 519.87 338.785C502.429 335.57 490.421 342.907 478.751 355.042C461.769 341.98 454.713 338.246 434.117 332.285C448.671 314.599 481.616 293.261 504.629 290.181Z"/><path fill="#4a4a4a" d="M429.979 248.232C457.899 247.906 484.782 260.637 503.899 280.784C486.205 283.559 466.081 292.092 452.883 304.304C447.09 297.535 443.734 294.441 435.615 290.884C432.527 289.763 429.265 289.194 425.979 289.203C415.957 289.275 408.434 294.263 401.665 301.075C386.22 294.949 376.479 292.991 360.15 295.285C364.424 287.434 369.457 280.938 375.407 274.406C391.415 256.83 406.162 249.262 429.979 248.232Z"/><path fill="#4a4a4a" d="M584.361 248.704C589.789 247.98 599.385 248.488 604.819 249.211C632.42 252.884 648.931 273.609 664.513 294.663C645.265 294.155 640.721 293.899 622.765 300.946C615.522 294.744 609.23 290.165 599.547 289.303C586.742 289.839 579.727 294.663 571.107 303.787C554.621 291.449 541.397 284.301 521.052 280.873C536.696 263.874 561.215 251.045 584.361 248.704Z"/><path fill="#1a1a1a" d="M329.513 427.618C352.534 425.615 372.759 442.184 387.06 458.364C382.079 457.839 374.649 458.272 369.507 458.448C342.228 459.382 320.959 466.424 298.72 482.177C287.38 491.068 278.004 501.23 269.028 512.422C274.794 479.216 292.969 435.938 329.513 427.618Z"/><path fill="#1a1a1a" d="M687.269 427.149C696.168 425.852 705.702 430.647 712.843 435.515C737.52 452.338 750.399 484.387 755.343 513.102C747.679 502.143 741.983 495.38 731.668 486.699C730.469 485.674 729.254 484.669 728.023 483.683C703.365 464.055 668.334 454.919 637.07 458.455C649.762 442.857 667.085 430.321 687.269 427.149Z"/><path fill="#1a1a1a" d="M295.389 580.158C318.467 580.316 345.922 590.299 363.959 604.369C362.812 604.256 361.663 604.167 360.512 604.104C332.922 602.605 310.277 612.212 289.99 630.346C277.027 643.125 271.43 654.29 264.359 670.894C256.113 641.329 260.987 599.719 289.717 582.866C291.687 581.71 293.219 580.917 295.389 580.158Z"/><path fill="#1a1a1a" d="M725.321 580.72C734.952 579.417 748.045 593.993 752.645 601.472C764.956 621.486 764.931 647.702 759.723 669.902C752.759 654.028 748.498 645.145 736.347 632.436C713.415 610.425 692.46 603.678 660.909 603.571C677.981 589.684 703.525 582.676 725.321 580.72Z"/><path fill="#888888" d="M507.455 217.697C529.33 215.678 549.559 228.149 565.583 241.615C549.205 247.614 544.694 248.888 530.488 259.567C525.99 255.263 523.708 254.119 518.047 252.249C517.217 252.125 516.385 252.01 515.553 251.904C506.264 250.733 500.426 253.731 493.44 259.12C482.726 250.824 472.46 245.694 459.35 242.522C473.629 228.335 487.303 219.791 507.455 217.697Z"/><path fill="#1a1a1a" d="M328.174 723.668C344.838 722.833 363.327 728.812 379.307 733.449C359.127 742.382 336.927 749.162 324.548 770.443C320.141 778.828 320.172 786.894 319.661 796.181C310.655 787.926 304.08 780.8 299.52 769.25C291.618 749.234 306.917 726.002 328.174 723.668Z"/><path fill="#1a1a1a" d="M684.836 724.196C706.855 720.452 726.93 737.478 727.08 759.799C727.174 773.861 714.17 787.031 704.527 796.163C704.473 791.215 704.262 787.3 703.847 782.366C699.206 756.445 668.421 740.841 645.746 733.89C655.079 730.03 674.854 725.282 684.836 724.196Z"/><path fill="#888888" d="M510.154 149.682C529.749 148.488 544.995 165.356 555.891 179.384C544.65 179.62 535.1 183.744 526.589 190.883C521.98 187.585 520.514 186.849 515.038 185.456C507.203 185.341 504.053 186.759 498.061 191.414C489.009 183.365 480.68 179.794 468.589 179.356C478.397 165.153 492.284 151.539 510.154 149.682Z"/><path fill="#888888" d="M461.988 186.683C479.728 185.368 495.34 196.308 506.499 208.88C493.71 211.026 484.952 213.257 473.425 219.961C470.403 221.719 465.761 226.225 462.972 227.428L462.138 226.882C453.598 217.006 444.955 218.017 434.111 222.816C428.399 220.921 424.488 220.728 418.592 220.942C428.512 204.595 441.913 188.814 461.988 186.683Z"/><path fill="#888888" d="M558.323 186.699C579.705 185.575 595.127 205.204 605.941 221.086C599.277 220.28 596.353 220.674 589.894 222.197C580.852 218.111 574.62 217.72 566.055 223.207C564.369 224.66 562.894 226.402 561.393 228.056C548.005 216.491 535.8 211.561 518.679 208.986C529.286 194.642 540.399 188.363 558.323 186.699Z"/><path fill="#4a4a4a" d="M372.262 304.08C373.07 304.025 373.88 303.995 374.689 303.992C389.51 303.874 405.405 316.639 415.264 326.522C395.08 323.683 370.921 327.631 352.662 336.729C345.128 339.936 331.824 349.029 325.178 354C334.184 333.855 348.667 308.813 372.262 304.08Z"/><path fill="#4a4a4a" d="M647.296 304.141C669.71 302.071 690.776 335.57 698.634 352.935C689.755 347.193 684.924 343.163 675.077 338.043C653.896 326.949 631.622 323.548 607.977 327.345C618.797 316.416 631.633 306.416 647.296 304.141Z"/><path fill="#4a4a4a" d="M597.718 227.636C610.079 226.502 619.353 238.359 626.448 246.969C622.503 245.222 619.482 244.145 615.379 242.75C602.093 239.21 594.732 239.118 581.183 239.538C586.292 232.634 589.297 229.994 597.718 227.636Z"/><path fill="#4a4a4a" d="M421.375 227.522L421.536 227.516C430.763 227.227 438.118 233.635 444.427 239.574C435.412 238.337 426.246 238.792 417.399 240.918C410.314 242.795 404.885 244.565 398.167 247.465C404.928 238.727 410.474 230.938 421.375 227.522Z"/></svg>